<svg width="128" height="128" viewBox="0 0 128 128" fill="none" xmlns="http://www.w3.org/2000/svg">
  <rect width="128" height="128" rx="10" fill="#101826"/>
  <path d="M64 12L109 28V63C109 88.3 91.9 110.9 67.3 117L64 117.8L60.7 117C36.1 110.9 19 88.3 19 63V28L64 12Z" fill="#132A49"/>
  <path d="M64 12L109 28V63C109 88.3 91.9 110.9 67.3 117L64 117.8V12Z" fill="#2F9E44"/>
  <path d="M64.9 22.5C58.4 29.8 54.4 39.9 54.4 50.8C54.4 54.1 54.8 57.2 55.6 60.2C43.2 62.4 34 73.3 34 86.3C34 89.3 34.5 92.2 35.4 94.9L44.8 89.5C44.3 88.4 44 87.4 44 86.3C44 78.7 49.7 72.4 57.1 71.4C60.6 77.6 66.3 82.4 73.3 84.5L82.4 79.2C70.3 78.4 60.8 68.3 60.8 55.9C60.8 43.9 69.9 34 81.6 32.9L64.9 22.5Z" fill="#060B12"/>
  <path d="M81.7 26.8L62.1 37.8L79 48.1L73.3 51.4L56.4 41.1V78.4L62.1 75.1V47.7L81.7 36.7V26.8Z" fill="#060B12"/>
  <path d="M79.5 26L89.2 31.4V41.9L94.8 45.1V28L79.5 19.3V26Z" fill="white"/>
  <path d="M90 42.9C92.5 42.9 94.5 40.9 94.5 38.4C94.5 35.9 92.5 33.9 90 33.9C87.5 33.9 85.5 35.9 85.5 38.4C85.5 40.9 87.5 42.9 90 42.9Z" fill="white"/>
  <path d="M96.7 53.2L87 47.6L81.3 50.8L91.1 56.5V67.3L96.7 70.5V53.2Z" fill="white"/>
  <path d="M97 77.5C99.5 77.5 101.5 75.5 101.5 73C101.5 70.5 99.5 68.5 97 68.5C94.5 68.5 92.5 70.5 92.5 73C92.5 75.5 94.5 77.5 97 77.5Z" fill="white"/>
  <path d="M74.3 57.7L68.7 60.9V76.3L74.3 79.5V57.7Z" fill="white"/>
  <path d="M68 87.9C70.5 87.9 72.5 85.9 72.5 83.4C72.5 80.9 70.5 78.9 68 78.9C65.5 78.9 63.5 80.9 63.5 83.4C63.5 85.9 65.5 87.9 68 87.9Z" fill="white"/>
</svg>
